<svg width="1363" height="163" viewBox="0 0 1363 163" fill="none" xmlns="http://www.w3.org/2000/svg">
<path d="M0 15C0 6.71573 6.71573 0 15 0H37V163H15C6.71573 163 0 156.284 0 148V15Z" fill="#424242"/>
<rect width="1097" height="163" transform="translate(37)" fill="#F0F0F0"/>
<path d="M101.906 53.9219L94.3945 51.2383V48.0859L104.602 52.375V54.6367L101.906 53.9219ZM94.3945 56.1719L101.918 53.4297L104.602 52.7852V55.0352L94.3945 59.3242V56.1719ZM124.277 50.8867V53.6289H115.371V50.8867H124.277ZM116.414 43.9375V61H112.898V43.9375H116.414ZM126.785 43.9375V61H123.281V43.9375H126.785ZM133.195 48.3203V61H129.809V48.3203H133.195ZM129.598 45.0156C129.598 44.5234 129.77 44.1172 130.113 43.7969C130.457 43.4766 130.918 43.3164 131.496 43.3164C132.066 43.3164 132.523 43.4766 132.867 43.7969C133.219 44.1172 133.395 44.5234 133.395 45.0156C133.395 45.5078 133.219 45.9141 132.867 46.2344C132.523 46.5547 132.066 46.7148 131.496 46.7148C130.918 46.7148 130.457 46.5547 130.113 46.2344C129.77 45.9141 129.598 45.5078 129.598 45.0156ZM140.297 58.5391L143.109 48.3203H146.637L142.359 61H140.227L140.297 58.5391ZM138.363 48.3203L141.188 58.5508L141.246 61H139.102L134.824 48.3203H138.363ZM153.82 61.2344C152.836 61.2344 151.953 61.0781 151.172 60.7656C150.391 60.4453 149.727 60.0039 149.18 59.4414C148.641 58.8789 148.227 58.2266 147.938 57.4844C147.648 56.7344 147.504 55.9375 147.504 55.0938V54.625C147.504 53.6641 147.641 52.7852 147.914 51.9883C148.188 51.1914 148.578 50.5 149.086 49.9141C149.602 49.3281 150.227 48.8789 150.961 48.5664C151.695 48.2461 152.523 48.0859 153.445 48.0859C154.344 48.0859 155.141 48.2344 155.836 48.5312C156.531 48.8281 157.113 49.25 157.582 49.7969C158.059 50.3438 158.418 51 158.66 51.7656C158.902 52.5234 159.023 53.3672 159.023 54.2969V55.7031H148.945V53.4531H155.707V53.1953C155.707 52.7266 155.621 52.3086 155.449 51.9414C155.285 51.5664 155.035 51.2695 154.699 51.0508C154.363 50.832 153.934 50.7227 153.41 50.7227C152.965 50.7227 152.582 50.8203 152.262 51.0156C151.941 51.2109 151.68 51.4844 151.477 51.8359C151.281 52.1875 151.133 52.6016 151.031 53.0781C150.938 53.5469 150.891 54.0625 150.891 54.625V55.0938C150.891 55.6016 150.961 56.0703 151.102 56.5C151.25 56.9297 151.457 57.3008 151.723 57.6133C151.996 57.9258 152.324 58.168 152.707 58.3398C153.098 58.5117 153.539 58.5977 154.031 58.5977C154.641 58.5977 155.207 58.4805 155.73 58.2461C156.262 58.0039 156.719 57.6406 157.102 57.1562L158.742 58.9375C158.477 59.3203 158.113 59.6875 157.652 60.0391C157.199 60.3906 156.652 60.6797 156.012 60.9062C155.371 61.125 154.641 61.2344 153.82 61.2344ZM162.762 43.9375H165.738L170.121 56.4648L174.504 43.9375H177.48L171.316 61H168.926L162.762 43.9375ZM161.156 43.9375H164.121L164.66 56.1484V61H161.156V43.9375ZM176.121 43.9375H179.098V61H175.582V56.1484L176.121 43.9375ZM185.531 48.3203V61H182.145V48.3203H185.531ZM181.934 45.0156C181.934 44.5234 182.105 44.1172 182.449 43.7969C182.793 43.4766 183.254 43.3164 183.832 43.3164C184.402 43.3164 184.859 43.4766 185.203 43.7969C185.555 44.1172 185.73 44.5234 185.73 45.0156C185.73 45.5078 185.555 45.9141 185.203 46.2344C184.859 46.5547 184.402 46.7148 183.832 46.7148C183.254 46.7148 182.793 46.5547 182.449 46.2344C182.105 45.9141 181.934 45.5078 181.934 45.0156ZM191.625 51.0273V61H188.25V48.3203H191.414L191.625 51.0273ZM191.133 54.2148H190.219C190.219 53.2773 190.34 52.4336 190.582 51.6836C190.824 50.9258 191.164 50.2812 191.602 49.75C192.039 49.2109 192.559 48.8008 193.16 48.5195C193.77 48.2305 194.449 48.0859 195.199 48.0859C195.793 48.0859 196.336 48.1719 196.828 48.3438C197.32 48.5156 197.742 48.7891 198.094 49.1641C198.453 49.5391 198.727 50.0352 198.914 50.6523C199.109 51.2695 199.207 52.0234 199.207 52.9141V61H195.809V52.9023C195.809 52.3398 195.73 51.9023 195.574 51.5898C195.418 51.2773 195.188 51.0586 194.883 50.9336C194.586 50.8008 194.219 50.7344 193.781 50.7344C193.328 50.7344 192.934 50.8242 192.598 51.0039C192.27 51.1836 191.996 51.4336 191.777 51.7539C191.566 52.0664 191.406 52.4336 191.297 52.8555C191.188 53.2773 191.133 53.7305 191.133 54.2148ZM209.262 58.2344V43H212.66V61H209.602L209.262 58.2344ZM201.246 54.8125V54.5664C201.246 53.5977 201.355 52.7188 201.574 51.9297C201.793 51.1328 202.113 50.4492 202.535 49.8789C202.957 49.3086 203.477 48.8672 204.094 48.5547C204.711 48.2422 205.414 48.0859 206.203 48.0859C206.945 48.0859 207.594 48.2422 208.148 48.5547C208.711 48.8672 209.188 49.3125 209.578 49.8906C209.977 50.4609 210.297 51.1367 210.539 51.918C210.781 52.6914 210.957 53.5391 211.066 54.4609V55C210.957 55.8828 210.781 56.7031 210.539 57.4609C210.297 58.2188 209.977 58.8828 209.578 59.4531C209.188 60.0156 208.711 60.4531 208.148 60.7656C207.586 61.0781 206.93 61.2344 206.18 61.2344C205.391 61.2344 204.688 61.0742 204.07 60.7539C203.461 60.4336 202.945 59.9844 202.523 59.4062C202.109 58.8281 201.793 58.1484 201.574 57.3672C201.355 56.5859 201.246 55.7344 201.246 54.8125ZM204.621 54.5664V54.8125C204.621 55.3359 204.66 55.8242 204.738 56.2773C204.824 56.7305 204.961 57.1328 205.148 57.4844C205.344 57.8281 205.594 58.0977 205.898 58.293C206.211 58.4805 206.59 58.5742 207.035 58.5742C207.613 58.5742 208.09 58.4453 208.465 58.1875C208.84 57.9219 209.125 57.5586 209.32 57.0977C209.523 56.6367 209.641 56.1055 209.672 55.5039V53.9688C209.648 53.4766 209.578 53.0352 209.461 52.6445C209.352 52.2461 209.188 51.9062 208.969 51.625C208.758 51.3438 208.492 51.125 208.172 50.9688C207.859 50.8125 207.488 50.7344 207.059 50.7344C206.621 50.7344 206.246 50.8359 205.934 51.0391C205.621 51.2344 205.367 51.5039 205.172 51.8477C204.984 52.1914 204.844 52.5977 204.75 53.0664C204.664 53.5273 204.621 54.0273 204.621 54.5664Z" fill="#888888"/>
<path d="M104.344 84.875V119H96.1406V84.875H104.344ZM108.773 106.578V106.086C108.773 104.227 109.039 102.516 109.57 100.953C110.102 99.375 110.883 98.0078 111.914 96.8516C112.945 95.6953 114.219 94.7969 115.734 94.1562C117.25 93.5 119 93.1719 120.984 93.1719C122.984 93.1719 124.742 93.5 126.258 94.1562C127.789 94.7969 129.07 95.6953 130.102 96.8516C131.133 98.0078 131.914 99.375 132.445 100.953C132.977 102.516 133.242 104.227 133.242 106.086V106.578C133.242 108.422 132.977 110.133 132.445 111.711C131.914 113.273 131.133 114.641 130.102 115.812C129.07 116.969 127.797 117.867 126.281 118.508C124.766 119.148 123.016 119.469 121.031 119.469C119.047 119.469 117.289 119.148 115.758 118.508C114.227 117.867 112.945 116.969 111.914 115.812C110.883 114.641 110.102 113.273 109.57 111.711C109.039 110.133 108.773 108.422 108.773 106.578ZM116.672 106.086V106.578C116.672 107.531 116.742 108.422 116.883 109.25C117.023 110.078 117.258 110.805 117.586 111.43C117.914 112.039 118.359 112.516 118.922 112.859C119.484 113.203 120.188 113.375 121.031 113.375C121.859 113.375 122.547 113.203 123.094 112.859C123.656 112.516 124.102 112.039 124.43 111.43C124.758 110.805 124.992 110.078 125.133 109.25C125.273 108.422 125.344 107.531 125.344 106.578V106.086C125.344 105.164 125.273 104.297 125.133 103.484C124.992 102.656 124.758 101.93 124.43 101.305C124.102 100.664 123.656 100.164 123.094 99.8047C122.531 99.4453 121.828 99.2656 120.984 99.2656C120.156 99.2656 119.461 99.4453 118.898 99.8047C118.352 100.164 117.914 100.664 117.586 101.305C117.258 101.93 117.023 102.656 116.883 103.484C116.742 104.297 116.672 105.164 116.672 106.086ZM153.656 84.875V119H145.43V84.875H153.656ZM163.922 84.875V91.2266H135.398V84.875H163.922ZM195.539 109.93C195.539 109.398 195.461 108.922 195.305 108.5C195.148 108.062 194.859 107.656 194.438 107.281C194.016 106.906 193.406 106.531 192.609 106.156C191.828 105.766 190.797 105.359 189.516 104.938C188.016 104.438 186.57 103.875 185.18 103.25C183.789 102.609 182.547 101.867 181.453 101.023C180.359 100.164 179.492 99.1641 178.852 98.0234C178.211 96.8672 177.891 95.5234 177.891 93.9922C177.891 92.5234 178.219 91.2031 178.875 90.0312C179.531 88.8438 180.445 87.8359 181.617 87.0078C182.805 86.1641 184.195 85.5234 185.789 85.0859C187.383 84.6328 189.125 84.4062 191.016 84.4062C193.516 84.4062 195.719 84.8438 197.625 85.7188C199.547 86.5781 201.047 87.8047 202.125 89.3984C203.219 90.9766 203.766 92.8438 203.766 95H195.586C195.586 94.1406 195.406 93.3828 195.047 92.7266C194.703 92.0703 194.18 91.5547 193.477 91.1797C192.773 90.8047 191.891 90.6172 190.828 90.6172C189.797 90.6172 188.93 90.7734 188.227 91.0859C187.523 91.3984 186.992 91.8203 186.633 92.3516C186.273 92.8672 186.094 93.4375 186.094 94.0625C186.094 94.5781 186.234 95.0469 186.516 95.4688C186.812 95.875 187.227 96.2578 187.758 96.6172C188.305 96.9766 188.961 97.3203 189.727 97.6484C190.508 97.9766 191.383 98.2969 192.352 98.6094C194.164 99.1875 195.773 99.8359 197.18 100.555C198.602 101.258 199.797 102.062 200.766 102.969C201.75 103.859 202.492 104.875 202.992 106.016C203.508 107.156 203.766 108.445 203.766 109.883C203.766 111.414 203.469 112.773 202.875 113.961C202.281 115.148 201.43 116.156 200.32 116.984C199.211 117.797 197.883 118.414 196.336 118.836C194.789 119.258 193.062 119.469 191.156 119.469C189.406 119.469 187.68 119.25 185.977 118.812C184.289 118.359 182.758 117.672 181.383 116.75C180.008 115.812 178.906 114.617 178.078 113.164C177.266 111.695 176.859 109.953 176.859 107.938H185.109C185.109 108.938 185.242 109.781 185.508 110.469C185.773 111.156 186.164 111.711 186.68 112.133C187.195 112.539 187.828 112.836 188.578 113.023C189.328 113.195 190.188 113.281 191.156 113.281C192.203 113.281 193.047 113.133 193.688 112.836C194.328 112.523 194.797 112.117 195.094 111.617C195.391 111.102 195.539 110.539 195.539 109.93ZM215.977 93.6406V119H208.055V93.6406H215.977ZM207.586 87.1016C207.586 85.9766 207.992 85.0547 208.805 84.3359C209.617 83.6172 210.672 83.2578 211.969 83.2578C213.266 83.2578 214.32 83.6172 215.133 84.3359C215.945 85.0547 216.352 85.9766 216.352 87.1016C216.352 88.2266 215.945 89.1484 215.133 89.8672C214.32 90.5859 213.266 90.9453 211.969 90.9453C210.672 90.9453 209.617 90.5859 208.805 89.8672C207.992 89.1484 207.586 88.2266 207.586 87.1016ZM228.82 99.0078V119H220.922V93.6406H228.328L228.82 99.0078ZM227.859 105.453L226.055 105.5C226.055 103.719 226.266 102.078 226.688 100.578C227.109 99.0781 227.734 97.7734 228.562 96.6641C229.391 95.5547 230.406 94.6953 231.609 94.0859C232.828 93.4766 234.234 93.1719 235.828 93.1719C236.938 93.1719 237.945 93.3438 238.852 93.6875C239.758 94.0156 240.539 94.5391 241.195 95.2578C241.852 95.9609 242.352 96.8828 242.695 98.0234C243.055 99.1484 243.234 100.5 243.234 102.078V119H235.336V103.086C235.336 102.008 235.211 101.195 234.961 100.648C234.727 100.102 234.383 99.7344 233.93 99.5469C233.477 99.3594 232.922 99.2656 232.266 99.2656C231.578 99.2656 230.961 99.4219 230.414 99.7344C229.867 100.047 229.398 100.484 229.008 101.047C228.633 101.594 228.344 102.242 228.141 102.992C227.953 103.742 227.859 104.562 227.859 105.453ZM242.344 105.453L240.141 105.5C240.141 103.719 240.336 102.078 240.727 100.578C241.133 99.0781 241.734 97.7734 242.531 96.6641C243.344 95.5547 244.352 94.6953 245.555 94.0859C246.758 93.4766 248.156 93.1719 249.75 93.1719C250.906 93.1719 251.969 93.3438 252.938 93.6875C253.906 94.0312 254.742 94.5859 255.445 95.3516C256.148 96.1172 256.695 97.1328 257.086 98.3984C257.477 99.6484 257.672 101.195 257.672 103.039V119H249.75V103.039C249.75 101.992 249.625 101.203 249.375 100.672C249.141 100.125 248.797 99.7578 248.344 99.5703C247.891 99.3672 247.352 99.2656 246.727 99.2656C245.977 99.2656 245.328 99.4219 244.781 99.7344C244.234 100.047 243.773 100.484 243.398 101.047C243.039 101.594 242.773 102.242 242.602 102.992C242.43 103.742 242.344 104.562 242.344 105.453ZM277.008 112.836V93.6406H284.93V119H277.523L277.008 112.836ZM277.758 107.68L279.82 107.633C279.82 109.336 279.617 110.914 279.211 112.367C278.805 113.805 278.203 115.055 277.406 116.117C276.625 117.18 275.656 118.008 274.5 118.602C273.359 119.18 272.039 119.469 270.539 119.469C269.289 119.469 268.141 119.297 267.094 118.953C266.062 118.594 265.172 118.039 264.422 117.289C263.672 116.523 263.086 115.547 262.664 114.359C262.258 113.156 262.055 111.719 262.055 110.047V93.6406H269.953V110.094C269.953 110.656 270.023 111.141 270.164 111.547C270.305 111.953 270.508 112.297 270.773 112.578C271.039 112.844 271.367 113.047 271.758 113.188C272.164 113.312 272.625 113.375 273.141 113.375C274.328 113.375 275.258 113.125 275.93 112.625C276.602 112.125 277.07 111.445 277.336 110.586C277.617 109.727 277.758 108.758 277.758 107.68ZM297.633 83V119H289.711V83H297.633ZM315.68 112.625V102.172C315.68 101.453 315.578 100.836 315.375 100.32C315.172 99.8047 314.852 99.4062 314.414 99.125C313.977 98.8281 313.391 98.6797 312.656 98.6797C312.062 98.6797 311.555 98.7812 311.133 98.9844C310.711 99.1875 310.391 99.4922 310.172 99.8984C309.953 100.305 309.844 100.82 309.844 101.445H301.945C301.945 100.273 302.203 99.1875 302.719 98.1875C303.25 97.1719 304 96.2891 304.969 95.5391C305.953 94.7891 307.125 94.2109 308.484 93.8047C309.859 93.3828 311.391 93.1719 313.078 93.1719C315.094 93.1719 316.891 93.5078 318.469 94.1797C320.062 94.8516 321.32 95.8594 322.242 97.2031C323.164 98.5312 323.625 100.203 323.625 102.219V112.602C323.625 114.258 323.719 115.516 323.906 116.375C324.094 117.219 324.359 117.961 324.703 118.602V119H316.781C316.406 118.219 316.125 117.266 315.938 116.141C315.766 115 315.68 113.828 315.68 112.625ZM316.641 103.508L316.688 107.727H313.195C312.461 107.727 311.836 107.828 311.32 108.031C310.82 108.234 310.414 108.516 310.102 108.875C309.805 109.219 309.586 109.609 309.445 110.047C309.32 110.484 309.258 110.945 309.258 111.43C309.258 111.898 309.367 112.32 309.586 112.695C309.82 113.055 310.133 113.336 310.523 113.539C310.914 113.742 311.352 113.844 311.836 113.844C312.711 113.844 313.453 113.68 314.062 113.352C314.688 113.008 315.164 112.594 315.492 112.109C315.82 111.625 315.984 111.172 315.984 110.75L317.719 113.984C317.406 114.609 317.047 115.242 316.641 115.883C316.25 116.523 315.758 117.117 315.164 117.664C314.586 118.195 313.875 118.633 313.031 118.977C312.188 119.305 311.164 119.469 309.961 119.469C308.398 119.469 306.961 119.148 305.648 118.508C304.352 117.867 303.312 116.977 302.531 115.836C301.75 114.68 301.359 113.352 301.359 111.852C301.359 110.539 301.594 109.367 302.062 108.336C302.547 107.305 303.273 106.43 304.242 105.711C305.211 104.992 306.445 104.445 307.945 104.07C309.445 103.695 311.211 103.508 313.242 103.508H316.641ZM341.367 93.6406V99.125H326.086V93.6406H341.367ZM329.297 87.3359H337.195V110.727C337.195 111.398 337.273 111.922 337.43 112.297C337.586 112.656 337.852 112.914 338.227 113.07C338.617 113.211 339.133 113.281 339.773 113.281C340.227 113.281 340.602 113.273 340.898 113.258C341.195 113.227 341.477 113.188 341.742 113.141V118.789C341.07 119.008 340.367 119.172 339.633 119.281C338.898 119.406 338.117 119.469 337.289 119.469C335.602 119.469 334.156 119.203 332.953 118.672C331.766 118.141 330.859 117.305 330.234 116.164C329.609 115.023 329.297 113.539 329.297 111.711V87.3359ZM352.852 93.6406V119H344.93V93.6406H352.852ZM344.461 87.1016C344.461 85.9766 344.867 85.0547 345.68 84.3359C346.492 83.6172 347.547 83.2578 348.844 83.2578C350.141 83.2578 351.195 83.6172 352.008 84.3359C352.82 85.0547 353.227 85.9766 353.227 87.1016C353.227 88.2266 352.82 89.1484 352.008 89.8672C351.195 90.5859 350.141 90.9453 348.844 90.9453C347.547 90.9453 346.492 90.5859 345.68 89.8672C344.867 89.1484 344.461 88.2266 344.461 87.1016ZM356.742 106.578V106.086C356.742 104.227 357.008 102.516 357.539 100.953C358.07 99.375 358.852 98.0078 359.883 96.8516C360.914 95.6953 362.188 94.7969 363.703 94.1562C365.219 93.5 366.969 93.1719 368.953 93.1719C370.953 93.1719 372.711 93.5 374.227 94.1562C375.758 94.7969 377.039 95.6953 378.07 96.8516C379.102 98.0078 379.883 99.375 380.414 100.953C380.945 102.516 381.211 104.227 381.211 106.086V106.578C381.211 108.422 380.945 110.133 380.414 111.711C379.883 113.273 379.102 114.641 378.07 115.812C377.039 116.969 375.766 117.867 374.25 118.508C372.734 119.148 370.984 119.469 369 119.469C367.016 119.469 365.258 119.148 363.727 118.508C362.195 117.867 360.914 116.969 359.883 115.812C358.852 114.641 358.07 113.273 357.539 111.711C357.008 110.133 356.742 108.422 356.742 106.578ZM364.641 106.086V106.578C364.641 107.531 364.711 108.422 364.852 109.25C364.992 110.078 365.227 110.805 365.555 111.43C365.883 112.039 366.328 112.516 366.891 112.859C367.453 113.203 368.156 113.375 369 113.375C369.828 113.375 370.516 113.203 371.062 112.859C371.625 112.516 372.07 112.039 372.398 111.43C372.727 110.805 372.961 110.078 373.102 109.25C373.242 108.422 373.312 107.531 373.312 106.578V106.086C373.312 105.164 373.242 104.297 373.102 103.484C372.961 102.656 372.727 101.93 372.398 101.305C372.07 100.664 371.625 100.164 371.062 99.8047C370.5 99.4453 369.797 99.2656 368.953 99.2656C368.125 99.2656 367.43 99.4453 366.867 99.8047C366.32 100.164 365.883 100.664 365.555 101.305C365.227 101.93 364.992 102.656 364.852 103.484C364.711 104.297 364.641 105.164 364.641 106.086ZM392.484 99.0547V119H384.586V93.6406H391.992L392.484 99.0547ZM391.547 105.453L389.695 105.5C389.695 103.562 389.93 101.836 390.398 100.32C390.867 98.7891 391.531 97.4922 392.391 96.4297C393.25 95.3672 394.273 94.5625 395.461 94.0156C396.664 93.4531 398 93.1719 399.469 93.1719C400.641 93.1719 401.711 93.3438 402.68 93.6875C403.664 94.0312 404.508 94.5859 405.211 95.3516C405.93 96.1172 406.477 97.1328 406.852 98.3984C407.242 99.6484 407.438 101.195 407.438 103.039V119H399.492V103.016C399.492 102 399.352 101.227 399.07 100.695C398.789 100.148 398.383 99.7734 397.852 99.5703C397.32 99.3672 396.672 99.2656 395.906 99.2656C395.094 99.2656 394.406 99.4219 393.844 99.7344C393.281 100.047 392.828 100.484 392.484 101.047C392.156 101.594 391.914 102.242 391.758 102.992C391.617 103.742 391.547 104.562 391.547 105.453Z" fill="black"/>
<path d="M1134 0H1348C1356.28 0 1363 6.71573 1363 15V148C1363 156.284 1356.28 163 1348 163H1134V0Z" fill="#FAD02C"/>
<path d="M1266.75 57.1666H1230.25C1226.89 57.1666 1224.17 59.8902 1224.17 63.25V99.75C1224.17 103.11 1226.89 105.833 1230.25 105.833H1266.75C1270.11 105.833 1272.83 103.11 1272.83 99.75V63.25C1272.83 59.8902 1270.11 57.1666 1266.75 57.1666Z" stroke="white" stroke-width="6.08333" stroke-linecap="round" stroke-linejoin="round"/>
<path d="M1254.58 72.375H1242.42C1240.74 72.375 1239.38 73.7368 1239.38 75.4167V87.5833C1239.38 89.2632 1240.74 90.625 1242.42 90.625H1254.58C1256.26 90.625 1257.62 89.2632 1257.62 87.5833V75.4167C1257.62 73.7368 1256.26 72.375 1254.58 72.375Z" stroke="white" stroke-width="6.08333" stroke-linecap="round" stroke-linejoin="round"/>
<path d="M1257.62 51.0834V57.1667" stroke="white" stroke-width="6.08333" stroke-linecap="round" stroke-linejoin="round"/>
<path d="M1257.62 105.833V111.917" stroke="white" stroke-width="6.08333" stroke-linecap="round" stroke-linejoin="round"/>
<path d="M1218.08 90.625H1224.17" stroke="white" stroke-width="6.08333" stroke-linecap="round" stroke-linejoin="round"/>
<path d="M1218.08 72.375H1224.17" stroke="white" stroke-width="6.08333" stroke-linecap="round" stroke-linejoin="round"/>
<path d="M1272.83 90.625H1278.92" stroke="white" stroke-width="6.08333" stroke-linecap="round" stroke-linejoin="round"/>
<path d="M1272.83 72.375H1278.92" stroke="white" stroke-width="6.08333" stroke-linecap="round" stroke-linejoin="round"/>
<path d="M1239.38 51.0834V57.1667" stroke="white" stroke-width="6.08333" stroke-linecap="round" stroke-linejoin="round"/>
<path d="M1239.38 105.833V111.917" stroke="white" stroke-width="6.08333" stroke-linecap="round" stroke-linejoin="round"/>
</svg>
