<svg width="1363" height="163" viewBox="0 0 1363 163" fill="none" xmlns="http://www.w3.org/2000/svg">
<path d="M0 15C0 6.71573 6.71573 0 15 0H37V163H15C6.71573 163 0 156.284 0 148V15Z" fill="#424242"/>
<rect width="1097" height="163" transform="translate(37)" fill="#F0F0F0"/>
<path d="M101.906 53.9219L94.3945 51.2383V48.0859L104.602 52.375V54.6367L101.906 53.9219ZM94.3945 56.1719L101.918 53.4297L104.602 52.7852V55.0352L94.3945 59.3242V56.1719ZM124.277 50.8867V53.6289H115.371V50.8867H124.277ZM116.414 43.9375V61H112.898V43.9375H116.414ZM126.785 43.9375V61H123.281V43.9375H126.785ZM133.195 48.3203V61H129.809V48.3203H133.195ZM129.598 45.0156C129.598 44.5234 129.77 44.1172 130.113 43.7969C130.457 43.4766 130.918 43.3164 131.496 43.3164C132.066 43.3164 132.523 43.4766 132.867 43.7969C133.219 44.1172 133.395 44.5234 133.395 45.0156C133.395 45.5078 133.219 45.9141 132.867 46.2344C132.523 46.5547 132.066 46.7148 131.496 46.7148C130.918 46.7148 130.457 46.5547 130.113 46.2344C129.77 45.9141 129.598 45.5078 129.598 45.0156ZM140.297 58.5391L143.109 48.3203H146.637L142.359 61H140.227L140.297 58.5391ZM138.363 48.3203L141.188 58.5508L141.246 61H139.102L134.824 48.3203H138.363ZM153.82 61.2344C152.836 61.2344 151.953 61.0781 151.172 60.7656C150.391 60.4453 149.727 60.0039 149.18 59.4414C148.641 58.8789 148.227 58.2266 147.938 57.4844C147.648 56.7344 147.504 55.9375 147.504 55.0938V54.625C147.504 53.6641 147.641 52.7852 147.914 51.9883C148.188 51.1914 148.578 50.5 149.086 49.9141C149.602 49.3281 150.227 48.8789 150.961 48.5664C151.695 48.2461 152.523 48.0859 153.445 48.0859C154.344 48.0859 155.141 48.2344 155.836 48.5312C156.531 48.8281 157.113 49.25 157.582 49.7969C158.059 50.3438 158.418 51 158.66 51.7656C158.902 52.5234 159.023 53.3672 159.023 54.2969V55.7031H148.945V53.4531H155.707V53.1953C155.707 52.7266 155.621 52.3086 155.449 51.9414C155.285 51.5664 155.035 51.2695 154.699 51.0508C154.363 50.832 153.934 50.7227 153.41 50.7227C152.965 50.7227 152.582 50.8203 152.262 51.0156C151.941 51.2109 151.68 51.4844 151.477 51.8359C151.281 52.1875 151.133 52.6016 151.031 53.0781C150.938 53.5469 150.891 54.0625 150.891 54.625V55.0938C150.891 55.6016 150.961 56.0703 151.102 56.5C151.25 56.9297 151.457 57.3008 151.723 57.6133C151.996 57.9258 152.324 58.168 152.707 58.3398C153.098 58.5117 153.539 58.5977 154.031 58.5977C154.641 58.5977 155.207 58.4805 155.73 58.2461C156.262 58.0039 156.719 57.6406 157.102 57.1562L158.742 58.9375C158.477 59.3203 158.113 59.6875 157.652 60.0391C157.199 60.3906 156.652 60.6797 156.012 60.9062C155.371 61.125 154.641 61.2344 153.82 61.2344ZM162.762 43.9375H165.738L170.121 56.4648L174.504 43.9375H177.48L171.316 61H168.926L162.762 43.9375ZM161.156 43.9375H164.121L164.66 56.1484V61H161.156V43.9375ZM176.121 43.9375H179.098V61H175.582V56.1484L176.121 43.9375ZM185.531 48.3203V61H182.145V48.3203H185.531ZM181.934 45.0156C181.934 44.5234 182.105 44.1172 182.449 43.7969C182.793 43.4766 183.254 43.3164 183.832 43.3164C184.402 43.3164 184.859 43.4766 185.203 43.7969C185.555 44.1172 185.73 44.5234 185.73 45.0156C185.73 45.5078 185.555 45.9141 185.203 46.2344C184.859 46.5547 184.402 46.7148 183.832 46.7148C183.254 46.7148 182.793 46.5547 182.449 46.2344C182.105 45.9141 181.934 45.5078 181.934 45.0156ZM191.625 51.0273V61H188.25V48.3203H191.414L191.625 51.0273ZM191.133 54.2148H190.219C190.219 53.2773 190.34 52.4336 190.582 51.6836C190.824 50.9258 191.164 50.2812 191.602 49.75C192.039 49.2109 192.559 48.8008 193.16 48.5195C193.77 48.2305 194.449 48.0859 195.199 48.0859C195.793 48.0859 196.336 48.1719 196.828 48.3438C197.32 48.5156 197.742 48.7891 198.094 49.1641C198.453 49.5391 198.727 50.0352 198.914 50.6523C199.109 51.2695 199.207 52.0234 199.207 52.9141V61H195.809V52.9023C195.809 52.3398 195.73 51.9023 195.574 51.5898C195.418 51.2773 195.188 51.0586 194.883 50.9336C194.586 50.8008 194.219 50.7344 193.781 50.7344C193.328 50.7344 192.934 50.8242 192.598 51.0039C192.27 51.1836 191.996 51.4336 191.777 51.7539C191.566 52.0664 191.406 52.4336 191.297 52.8555C191.188 53.2773 191.133 53.7305 191.133 54.2148ZM209.262 58.2344V43H212.66V61H209.602L209.262 58.2344ZM201.246 54.8125V54.5664C201.246 53.5977 201.355 52.7188 201.574 51.9297C201.793 51.1328 202.113 50.4492 202.535 49.8789C202.957 49.3086 203.477 48.8672 204.094 48.5547C204.711 48.2422 205.414 48.0859 206.203 48.0859C206.945 48.0859 207.594 48.2422 208.148 48.5547C208.711 48.8672 209.188 49.3125 209.578 49.8906C209.977 50.4609 210.297 51.1367 210.539 51.918C210.781 52.6914 210.957 53.5391 211.066 54.4609V55C210.957 55.8828 210.781 56.7031 210.539 57.4609C210.297 58.2188 209.977 58.8828 209.578 59.4531C209.188 60.0156 208.711 60.4531 208.148 60.7656C207.586 61.0781 206.93 61.2344 206.18 61.2344C205.391 61.2344 204.688 61.0742 204.07 60.7539C203.461 60.4336 202.945 59.9844 202.523 59.4062C202.109 58.8281 201.793 58.1484 201.574 57.3672C201.355 56.5859 201.246 55.7344 201.246 54.8125ZM204.621 54.5664V54.8125C204.621 55.3359 204.66 55.8242 204.738 56.2773C204.824 56.7305 204.961 57.1328 205.148 57.4844C205.344 57.8281 205.594 58.0977 205.898 58.293C206.211 58.4805 206.59 58.5742 207.035 58.5742C207.613 58.5742 208.09 58.4453 208.465 58.1875C208.84 57.9219 209.125 57.5586 209.32 57.0977C209.523 56.6367 209.641 56.1055 209.672 55.5039V53.9688C209.648 53.4766 209.578 53.0352 209.461 52.6445C209.352 52.2461 209.188 51.9062 208.969 51.625C208.758 51.3438 208.492 51.125 208.172 50.9688C207.859 50.8125 207.488 50.7344 207.059 50.7344C206.621 50.7344 206.246 50.8359 205.934 51.0391C205.621 51.2344 205.367 51.5039 205.172 51.8477C204.984 52.1914 204.844 52.5977 204.75 53.0664C204.664 53.5273 204.621 54.0273 204.621 54.5664Z" fill="#888888"/>
<path d="M114.117 84.875H122.344V107.164C122.344 109.82 121.789 112.07 120.68 113.914C119.57 115.742 118.016 117.125 116.016 118.062C114.016 119 111.664 119.469 108.961 119.469C106.289 119.469 103.938 119 101.906 118.062C99.8906 117.125 98.3125 115.742 97.1719 113.914C96.0469 112.07 95.4844 109.82 95.4844 107.164V84.875H103.734V107.164C103.734 108.57 103.938 109.719 104.344 110.609C104.75 111.484 105.344 112.125 106.125 112.531C106.906 112.938 107.852 113.141 108.961 113.141C110.086 113.141 111.031 112.938 111.797 112.531C112.562 112.125 113.141 111.484 113.531 110.609C113.922 109.719 114.117 108.57 114.117 107.164V84.875ZM136.266 84.875V119H128.062V84.875H136.266ZM172.523 84.875H180.75V107.164C180.75 109.82 180.195 112.07 179.086 113.914C177.977 115.742 176.422 117.125 174.422 118.062C172.422 119 170.07 119.469 167.367 119.469C164.695 119.469 162.344 119 160.312 118.062C158.297 117.125 156.719 115.742 155.578 113.914C154.453 112.07 153.891 109.82 153.891 107.164V84.875H162.141V107.164C162.141 108.57 162.344 109.719 162.75 110.609C163.156 111.484 163.75 112.125 164.531 112.531C165.312 112.938 166.258 113.141 167.367 113.141C168.492 113.141 169.438 112.938 170.203 112.531C170.969 112.125 171.547 111.484 171.938 110.609C172.328 109.719 172.523 108.57 172.523 107.164V84.875ZM193.078 84.875L198.656 96.2188L204.234 84.875H213.609L204.094 101.797L213.867 119H204.398L198.656 107.445L192.914 119H183.422L193.219 101.797L183.68 84.875H193.078Z" fill="black"/>
<path d="M1134 0H1348C1356.28 0 1363 6.71573 1363 15V148C1363 156.284 1356.28 163 1348 163H1134V0Z" fill="#FAD02C"/>
<path d="M1248.5 111.917C1244.51 111.917 1240.55 111.13 1236.86 109.601C1233.17 108.073 1229.82 105.832 1226.99 103.008C1221.29 97.3036 1218.08 89.567 1218.08 81.5C1218.08 73.433 1221.29 65.6964 1226.99 59.9922C1232.7 54.2879 1240.43 51.0833 1248.5 51.0833C1265.23 51.0833 1278.92 63.25 1278.92 78.4583C1278.92 83.2985 1276.99 87.9405 1273.57 91.363C1270.15 94.7856 1265.51 96.7083 1260.67 96.7083H1255.19C1254.28 96.7083 1253.67 97.3167 1253.67 98.2292C1253.67 98.5333 1253.97 98.8375 1253.97 99.1417C1255.19 100.662 1255.8 102.487 1255.8 104.312C1256.1 108.571 1252.76 111.917 1248.5 111.917ZM1248.5 57.1667C1242.05 57.1667 1235.86 59.7303 1231.29 64.2937C1226.73 68.8571 1224.17 75.0464 1224.17 81.5C1224.17 87.9536 1226.73 94.1429 1231.29 98.7063C1235.86 103.27 1242.05 105.833 1248.5 105.833C1249.41 105.833 1250.02 105.225 1250.02 104.312C1250.02 103.704 1249.72 103.4 1249.72 103.096C1248.5 101.575 1247.89 100.054 1247.89 98.2292C1247.89 93.9708 1251.24 90.625 1255.5 90.625H1260.67C1263.89 90.625 1266.99 89.3432 1269.27 87.0615C1271.55 84.7798 1272.83 81.6851 1272.83 78.4583C1272.83 66.5958 1261.88 57.1667 1248.5 57.1667ZM1231.77 75.4167C1234.2 75.4167 1236.33 77.5458 1236.33 79.9792C1236.33 82.4125 1234.2 84.5417 1231.77 84.5417C1229.34 84.5417 1227.21 82.4125 1227.21 79.9792C1227.21 77.5458 1229.34 75.4167 1231.77 75.4167ZM1240.9 63.25C1243.33 63.25 1245.46 65.3792 1245.46 67.8125C1245.46 70.2458 1243.33 72.375 1240.9 72.375C1238.46 72.375 1236.33 70.2458 1236.33 67.8125C1236.33 65.3792 1238.46 63.25 1240.9 63.25ZM1256.1 63.25C1258.54 63.25 1260.67 65.3792 1260.67 67.8125C1260.67 70.2458 1258.54 72.375 1256.1 72.375C1253.67 72.375 1251.54 70.2458 1251.54 67.8125C1251.54 65.3792 1253.67 63.25 1256.1 63.25ZM1265.23 75.4167C1267.66 75.4167 1269.79 77.5458 1269.79 79.9792C1269.79 82.4125 1267.66 84.5417 1265.23 84.5417C1262.8 84.5417 1260.67 82.4125 1260.67 79.9792C1260.67 77.5458 1262.8 75.4167 1265.23 75.4167Z" fill="white"/>
</svg>
