<svg width="1363" height="163" viewBox="0 0 1363 163" fill="none" xmlns="http://www.w3.org/2000/svg">
<path d="M0 15C0 6.71573 6.71573 0 15 0H37V163H15C6.71573 163 0 156.284 0 148V15Z" fill="#424242"/>
<rect width="1097" height="163" transform="translate(37)" fill="#F0F0F0"/>
<path d="M101.906 53.9219L94.3945 51.2383V48.0859L104.602 52.375V54.6367L101.906 53.9219ZM94.3945 56.1719L101.918 53.4297L104.602 52.7852V55.0352L94.3945 59.3242V56.1719ZM124.277 50.8867V53.6289H115.371V50.8867H124.277ZM116.414 43.9375V61H112.898V43.9375H116.414ZM126.785 43.9375V61H123.281V43.9375H126.785ZM133.195 48.3203V61H129.809V48.3203H133.195ZM129.598 45.0156C129.598 44.5234 129.77 44.1172 130.113 43.7969C130.457 43.4766 130.918 43.3164 131.496 43.3164C132.066 43.3164 132.523 43.4766 132.867 43.7969C133.219 44.1172 133.395 44.5234 133.395 45.0156C133.395 45.5078 133.219 45.9141 132.867 46.2344C132.523 46.5547 132.066 46.7148 131.496 46.7148C130.918 46.7148 130.457 46.5547 130.113 46.2344C129.77 45.9141 129.598 45.5078 129.598 45.0156ZM140.297 58.5391L143.109 48.3203H146.637L142.359 61H140.227L140.297 58.5391ZM138.363 48.3203L141.188 58.5508L141.246 61H139.102L134.824 48.3203H138.363ZM153.82 61.2344C152.836 61.2344 151.953 61.0781 151.172 60.7656C150.391 60.4453 149.727 60.0039 149.18 59.4414C148.641 58.8789 148.227 58.2266 147.938 57.4844C147.648 56.7344 147.504 55.9375 147.504 55.0938V54.625C147.504 53.6641 147.641 52.7852 147.914 51.9883C148.188 51.1914 148.578 50.5 149.086 49.9141C149.602 49.3281 150.227 48.8789 150.961 48.5664C151.695 48.2461 152.523 48.0859 153.445 48.0859C154.344 48.0859 155.141 48.2344 155.836 48.5312C156.531 48.8281 157.113 49.25 157.582 49.7969C158.059 50.3438 158.418 51 158.66 51.7656C158.902 52.5234 159.023 53.3672 159.023 54.2969V55.7031H148.945V53.4531H155.707V53.1953C155.707 52.7266 155.621 52.3086 155.449 51.9414C155.285 51.5664 155.035 51.2695 154.699 51.0508C154.363 50.832 153.934 50.7227 153.41 50.7227C152.965 50.7227 152.582 50.8203 152.262 51.0156C151.941 51.2109 151.68 51.4844 151.477 51.8359C151.281 52.1875 151.133 52.6016 151.031 53.0781C150.938 53.5469 150.891 54.0625 150.891 54.625V55.0938C150.891 55.6016 150.961 56.0703 151.102 56.5C151.25 56.9297 151.457 57.3008 151.723 57.6133C151.996 57.9258 152.324 58.168 152.707 58.3398C153.098 58.5117 153.539 58.5977 154.031 58.5977C154.641 58.5977 155.207 58.4805 155.73 58.2461C156.262 58.0039 156.719 57.6406 157.102 57.1562L158.742 58.9375C158.477 59.3203 158.113 59.6875 157.652 60.0391C157.199 60.3906 156.652 60.6797 156.012 60.9062C155.371 61.125 154.641 61.2344 153.82 61.2344ZM162.762 43.9375H165.738L170.121 56.4648L174.504 43.9375H177.48L171.316 61H168.926L162.762 43.9375ZM161.156 43.9375H164.121L164.66 56.1484V61H161.156V43.9375ZM176.121 43.9375H179.098V61H175.582V56.1484L176.121 43.9375ZM185.531 48.3203V61H182.145V48.3203H185.531ZM181.934 45.0156C181.934 44.5234 182.105 44.1172 182.449 43.7969C182.793 43.4766 183.254 43.3164 183.832 43.3164C184.402 43.3164 184.859 43.4766 185.203 43.7969C185.555 44.1172 185.73 44.5234 185.73 45.0156C185.73 45.5078 185.555 45.9141 185.203 46.2344C184.859 46.5547 184.402 46.7148 183.832 46.7148C183.254 46.7148 182.793 46.5547 182.449 46.2344C182.105 45.9141 181.934 45.5078 181.934 45.0156ZM191.625 51.0273V61H188.25V48.3203H191.414L191.625 51.0273ZM191.133 54.2148H190.219C190.219 53.2773 190.34 52.4336 190.582 51.6836C190.824 50.9258 191.164 50.2812 191.602 49.75C192.039 49.2109 192.559 48.8008 193.16 48.5195C193.77 48.2305 194.449 48.0859 195.199 48.0859C195.793 48.0859 196.336 48.1719 196.828 48.3438C197.32 48.5156 197.742 48.7891 198.094 49.1641C198.453 49.5391 198.727 50.0352 198.914 50.6523C199.109 51.2695 199.207 52.0234 199.207 52.9141V61H195.809V52.9023C195.809 52.3398 195.73 51.9023 195.574 51.5898C195.418 51.2773 195.188 51.0586 194.883 50.9336C194.586 50.8008 194.219 50.7344 193.781 50.7344C193.328 50.7344 192.934 50.8242 192.598 51.0039C192.27 51.1836 191.996 51.4336 191.777 51.7539C191.566 52.0664 191.406 52.4336 191.297 52.8555C191.188 53.2773 191.133 53.7305 191.133 54.2148ZM209.262 58.2344V43H212.66V61H209.602L209.262 58.2344ZM201.246 54.8125V54.5664C201.246 53.5977 201.355 52.7188 201.574 51.9297C201.793 51.1328 202.113 50.4492 202.535 49.8789C202.957 49.3086 203.477 48.8672 204.094 48.5547C204.711 48.2422 205.414 48.0859 206.203 48.0859C206.945 48.0859 207.594 48.2422 208.148 48.5547C208.711 48.8672 209.188 49.3125 209.578 49.8906C209.977 50.4609 210.297 51.1367 210.539 51.918C210.781 52.6914 210.957 53.5391 211.066 54.4609V55C210.957 55.8828 210.781 56.7031 210.539 57.4609C210.297 58.2188 209.977 58.8828 209.578 59.4531C209.188 60.0156 208.711 60.4531 208.148 60.7656C207.586 61.0781 206.93 61.2344 206.18 61.2344C205.391 61.2344 204.688 61.0742 204.07 60.7539C203.461 60.4336 202.945 59.9844 202.523 59.4062C202.109 58.8281 201.793 58.1484 201.574 57.3672C201.355 56.5859 201.246 55.7344 201.246 54.8125ZM204.621 54.5664V54.8125C204.621 55.3359 204.66 55.8242 204.738 56.2773C204.824 56.7305 204.961 57.1328 205.148 57.4844C205.344 57.8281 205.594 58.0977 205.898 58.293C206.211 58.4805 206.59 58.5742 207.035 58.5742C207.613 58.5742 208.09 58.4453 208.465 58.1875C208.84 57.9219 209.125 57.5586 209.32 57.0977C209.523 56.6367 209.641 56.1055 209.672 55.5039V53.9688C209.648 53.4766 209.578 53.0352 209.461 52.6445C209.352 52.2461 209.188 51.9062 208.969 51.625C208.758 51.3438 208.492 51.125 208.172 50.9688C207.859 50.8125 207.488 50.7344 207.059 50.7344C206.621 50.7344 206.246 50.8359 205.934 51.0391C205.621 51.2344 205.367 51.5039 205.172 51.8477C204.984 52.1914 204.844 52.5977 204.75 53.0664C204.664 53.5273 204.621 54.0273 204.621 54.5664Z" fill="#888888"/>
<path d="M112.125 84.875V119H103.898V84.875H112.125ZM122.391 84.875V91.2266H93.8672V84.875H122.391ZM135.68 119.469C133.617 119.469 131.773 119.148 130.148 118.508C128.523 117.852 127.148 116.953 126.023 115.812C124.914 114.672 124.062 113.359 123.469 111.875C122.891 110.391 122.602 108.82 122.602 107.164V106.273C122.602 104.414 122.859 102.695 123.375 101.117C123.891 99.5234 124.656 98.1328 125.672 96.9453C126.688 95.7578 127.961 94.8359 129.492 94.1797C131.023 93.5078 132.805 93.1719 134.836 93.1719C136.633 93.1719 138.242 93.4609 139.664 94.0391C141.086 94.6172 142.289 95.4453 143.273 96.5234C144.273 97.6016 145.031 98.9062 145.547 100.438C146.078 101.969 146.344 103.688 146.344 105.594V108.805H125.625V103.859H138.633V103.25C138.648 102.406 138.5 101.688 138.188 101.094C137.891 100.5 137.453 100.047 136.875 99.7344C136.297 99.4219 135.594 99.2656 134.766 99.2656C133.906 99.2656 133.195 99.4531 132.633 99.8281C132.086 100.203 131.656 100.719 131.344 101.375C131.047 102.016 130.836 102.758 130.711 103.602C130.586 104.445 130.523 105.336 130.523 106.273V107.164C130.523 108.102 130.648 108.953 130.898 109.719C131.164 110.484 131.539 111.141 132.023 111.688C132.523 112.219 133.117 112.633 133.805 112.93C134.508 113.227 135.305 113.375 136.195 113.375C137.273 113.375 138.336 113.172 139.383 112.766C140.43 112.359 141.328 111.688 142.078 110.75L145.664 115.016C145.148 115.75 144.414 116.461 143.461 117.148C142.523 117.836 141.398 118.398 140.086 118.836C138.773 119.258 137.305 119.469 135.68 119.469ZM160.266 113.375C161 113.375 161.625 113.242 162.141 112.977C162.672 112.695 163.07 112.305 163.336 111.805C163.617 111.289 163.75 110.672 163.734 109.953H171.164C171.18 111.859 170.711 113.531 169.758 114.969C168.82 116.391 167.539 117.5 165.914 118.297C164.305 119.078 162.484 119.469 160.453 119.469C158.469 119.469 156.734 119.148 155.25 118.508C153.766 117.852 152.523 116.945 151.523 115.789C150.539 114.617 149.797 113.25 149.297 111.688C148.812 110.125 148.57 108.43 148.57 106.602V106.062C148.57 104.234 148.812 102.539 149.297 100.977C149.797 99.3984 150.539 98.0312 151.523 96.875C152.523 95.7031 153.758 94.7969 155.227 94.1562C156.711 93.5 158.438 93.1719 160.406 93.1719C162.516 93.1719 164.375 93.5703 165.984 94.3672C167.609 95.1641 168.883 96.3203 169.805 97.8359C170.727 99.3516 171.18 101.188 171.164 103.344H163.734C163.75 102.578 163.633 101.891 163.383 101.281C163.133 100.672 162.742 100.188 162.211 99.8281C161.695 99.4531 161.031 99.2656 160.219 99.2656C159.406 99.2656 158.75 99.4453 158.25 99.8047C157.75 100.164 157.367 100.664 157.102 101.305C156.852 101.93 156.68 102.648 156.586 103.461C156.508 104.273 156.469 105.141 156.469 106.062V106.602C156.469 107.539 156.508 108.422 156.586 109.25C156.68 110.062 156.859 110.781 157.125 111.406C157.391 112.016 157.773 112.5 158.273 112.859C158.773 113.203 159.438 113.375 160.266 113.375ZM182.273 83V119H174.375V83H182.273ZM181.336 105.453L179.484 105.5C179.484 103.719 179.703 102.078 180.141 100.578C180.578 99.0781 181.203 97.7734 182.016 96.6641C182.828 95.5547 183.805 94.6953 184.945 94.0859C186.086 93.4766 187.352 93.1719 188.742 93.1719C189.992 93.1719 191.133 93.3516 192.164 93.7109C193.211 94.0703 194.109 94.6484 194.859 95.4453C195.625 96.2422 196.211 97.2812 196.617 98.5625C197.039 99.8438 197.25 101.406 197.25 103.25V119H189.305V103.203C189.305 102.172 189.156 101.375 188.859 100.812C188.578 100.234 188.172 99.8359 187.641 99.6172C187.109 99.3828 186.461 99.2656 185.695 99.2656C184.773 99.2656 184.023 99.4219 183.445 99.7344C182.867 100.047 182.422 100.484 182.109 101.047C181.812 101.594 181.609 102.242 181.5 102.992C181.391 103.742 181.336 104.562 181.336 105.453ZM231.539 109.93C231.539 109.398 231.461 108.922 231.305 108.5C231.148 108.062 230.859 107.656 230.438 107.281C230.016 106.906 229.406 106.531 228.609 106.156C227.828 105.766 226.797 105.359 225.516 104.938C224.016 104.438 222.57 103.875 221.18 103.25C219.789 102.609 218.547 101.867 217.453 101.023C216.359 100.164 215.492 99.1641 214.852 98.0234C214.211 96.8672 213.891 95.5234 213.891 93.9922C213.891 92.5234 214.219 91.2031 214.875 90.0312C215.531 88.8438 216.445 87.8359 217.617 87.0078C218.805 86.1641 220.195 85.5234 221.789 85.0859C223.383 84.6328 225.125 84.4062 227.016 84.4062C229.516 84.4062 231.719 84.8438 233.625 85.7188C235.547 86.5781 237.047 87.8047 238.125 89.3984C239.219 90.9766 239.766 92.8438 239.766 95H231.586C231.586 94.1406 231.406 93.3828 231.047 92.7266C230.703 92.0703 230.18 91.5547 229.477 91.1797C228.773 90.8047 227.891 90.6172 226.828 90.6172C225.797 90.6172 224.93 90.7734 224.227 91.0859C223.523 91.3984 222.992 91.8203 222.633 92.3516C222.273 92.8672 222.094 93.4375 222.094 94.0625C222.094 94.5781 222.234 95.0469 222.516 95.4688C222.812 95.875 223.227 96.2578 223.758 96.6172C224.305 96.9766 224.961 97.3203 225.727 97.6484C226.508 97.9766 227.383 98.2969 228.352 98.6094C230.164 99.1875 231.773 99.8359 233.18 100.555C234.602 101.258 235.797 102.062 236.766 102.969C237.75 103.859 238.492 104.875 238.992 106.016C239.508 107.156 239.766 108.445 239.766 109.883C239.766 111.414 239.469 112.773 238.875 113.961C238.281 115.148 237.43 116.156 236.32 116.984C235.211 117.797 233.883 118.414 232.336 118.836C230.789 119.258 229.062 119.469 227.156 119.469C225.406 119.469 223.68 119.25 221.977 118.812C220.289 118.359 218.758 117.672 217.383 116.75C216.008 115.812 214.906 114.617 214.078 113.164C213.266 111.695 212.859 109.953 212.859 107.938H221.109C221.109 108.938 221.242 109.781 221.508 110.469C221.773 111.156 222.164 111.711 222.68 112.133C223.195 112.539 223.828 112.836 224.578 113.023C225.328 113.195 226.188 113.281 227.156 113.281C228.203 113.281 229.047 113.133 229.688 112.836C230.328 112.523 230.797 112.117 231.094 111.617C231.391 111.102 231.539 110.539 231.539 109.93ZM256.992 93.6406V99.125H241.711V93.6406H256.992ZM244.922 87.3359H252.82V110.727C252.82 111.398 252.898 111.922 253.055 112.297C253.211 112.656 253.477 112.914 253.852 113.07C254.242 113.211 254.758 113.281 255.398 113.281C255.852 113.281 256.227 113.273 256.523 113.258C256.82 113.227 257.102 113.188 257.367 113.141V118.789C256.695 119.008 255.992 119.172 255.258 119.281C254.523 119.406 253.742 119.469 252.914 119.469C251.227 119.469 249.781 119.203 248.578 118.672C247.391 118.141 246.484 117.305 245.859 116.164C245.234 115.023 244.922 113.539 244.922 111.711V87.3359ZM273.305 112.625V102.172C273.305 101.453 273.203 100.836 273 100.32C272.797 99.8047 272.477 99.4062 272.039 99.125C271.602 98.8281 271.016 98.6797 270.281 98.6797C269.688 98.6797 269.18 98.7812 268.758 98.9844C268.336 99.1875 268.016 99.4922 267.797 99.8984C267.578 100.305 267.469 100.82 267.469 101.445H259.57C259.57 100.273 259.828 99.1875 260.344 98.1875C260.875 97.1719 261.625 96.2891 262.594 95.5391C263.578 94.7891 264.75 94.2109 266.109 93.8047C267.484 93.3828 269.016 93.1719 270.703 93.1719C272.719 93.1719 274.516 93.5078 276.094 94.1797C277.688 94.8516 278.945 95.8594 279.867 97.2031C280.789 98.5312 281.25 100.203 281.25 102.219V112.602C281.25 114.258 281.344 115.516 281.531 116.375C281.719 117.219 281.984 117.961 282.328 118.602V119H274.406C274.031 118.219 273.75 117.266 273.562 116.141C273.391 115 273.305 113.828 273.305 112.625ZM274.266 103.508L274.312 107.727H270.82C270.086 107.727 269.461 107.828 268.945 108.031C268.445 108.234 268.039 108.516 267.727 108.875C267.43 109.219 267.211 109.609 267.07 110.047C266.945 110.484 266.883 110.945 266.883 111.43C266.883 111.898 266.992 112.32 267.211 112.695C267.445 113.055 267.758 113.336 268.148 113.539C268.539 113.742 268.977 113.844 269.461 113.844C270.336 113.844 271.078 113.68 271.688 113.352C272.312 113.008 272.789 112.594 273.117 112.109C273.445 111.625 273.609 111.172 273.609 110.75L275.344 113.984C275.031 114.609 274.672 115.242 274.266 115.883C273.875 116.523 273.383 117.117 272.789 117.664C272.211 118.195 271.5 118.633 270.656 118.977C269.812 119.305 268.789 119.469 267.586 119.469C266.023 119.469 264.586 119.148 263.273 118.508C261.977 117.867 260.938 116.977 260.156 115.836C259.375 114.68 258.984 113.352 258.984 111.852C258.984 110.539 259.219 109.367 259.688 108.336C260.172 107.305 260.898 106.43 261.867 105.711C262.836 104.992 264.07 104.445 265.57 104.07C267.07 103.695 268.836 103.508 270.867 103.508H274.266ZM296.344 113.375C297.078 113.375 297.703 113.242 298.219 112.977C298.75 112.695 299.148 112.305 299.414 111.805C299.695 111.289 299.828 110.672 299.812 109.953H307.242C307.258 111.859 306.789 113.531 305.836 114.969C304.898 116.391 303.617 117.5 301.992 118.297C300.383 119.078 298.562 119.469 296.531 119.469C294.547 119.469 292.812 119.148 291.328 118.508C289.844 117.852 288.602 116.945 287.602 115.789C286.617 114.617 285.875 113.25 285.375 111.688C284.891 110.125 284.648 108.43 284.648 106.602V106.062C284.648 104.234 284.891 102.539 285.375 100.977C285.875 99.3984 286.617 98.0312 287.602 96.875C288.602 95.7031 289.836 94.7969 291.305 94.1562C292.789 93.5 294.516 93.1719 296.484 93.1719C298.594 93.1719 300.453 93.5703 302.062 94.3672C303.688 95.1641 304.961 96.3203 305.883 97.8359C306.805 99.3516 307.258 101.188 307.242 103.344H299.812C299.828 102.578 299.711 101.891 299.461 101.281C299.211 100.672 298.82 100.188 298.289 99.8281C297.773 99.4531 297.109 99.2656 296.297 99.2656C295.484 99.2656 294.828 99.4453 294.328 99.8047C293.828 100.164 293.445 100.664 293.18 101.305C292.93 101.93 292.758 102.648 292.664 103.461C292.586 104.273 292.547 105.141 292.547 106.062V106.602C292.547 107.539 292.586 108.422 292.664 109.25C292.758 110.062 292.938 110.781 293.203 111.406C293.469 112.016 293.852 112.5 294.352 112.859C294.852 113.203 295.516 113.375 296.344 113.375ZM318.586 82.9766V119H310.688V82.9766H318.586ZM334.805 93.6406L323.789 106.555L318.023 112.32L314.578 107.305L319.383 101.047L325.336 93.6406H334.805ZM326.344 119L319.57 107.445L325.406 103.297L335.391 119H326.344ZM350.156 111.875C350.156 111.438 350.008 111.062 349.711 110.75C349.43 110.422 348.93 110.125 348.211 109.859C347.492 109.578 346.484 109.297 345.188 109.016C343.953 108.75 342.789 108.398 341.695 107.961C340.617 107.523 339.672 106.992 338.859 106.367C338.047 105.742 337.406 105 336.938 104.141C336.484 103.281 336.258 102.297 336.258 101.188C336.258 100.109 336.484 99.0938 336.938 98.1406C337.406 97.1719 338.086 96.3203 338.977 95.5859C339.883 94.8359 340.984 94.25 342.281 93.8281C343.578 93.3906 345.055 93.1719 346.711 93.1719C348.992 93.1719 350.961 93.5234 352.617 94.2266C354.273 94.9141 355.547 95.8828 356.438 97.1328C357.344 98.3672 357.797 99.7969 357.797 101.422H349.898C349.898 100.781 349.789 100.234 349.57 99.7812C349.367 99.3281 349.031 98.9844 348.562 98.75C348.094 98.5 347.469 98.375 346.688 98.375C346.141 98.375 345.641 98.4766 345.188 98.6797C344.75 98.8828 344.398 99.1641 344.133 99.5234C343.867 99.8828 343.734 100.305 343.734 100.789C343.734 101.133 343.812 101.445 343.969 101.727C344.141 101.992 344.398 102.242 344.742 102.477C345.086 102.695 345.523 102.898 346.055 103.086C346.586 103.258 347.227 103.414 347.977 103.555C349.68 103.867 351.273 104.312 352.758 104.891C354.242 105.469 355.445 106.289 356.367 107.352C357.305 108.414 357.773 109.844 357.773 111.641C357.773 112.766 357.516 113.805 357 114.758C356.484 115.695 355.742 116.523 354.773 117.242C353.805 117.945 352.641 118.492 351.281 118.883C349.922 119.273 348.391 119.469 346.688 119.469C344.266 119.469 342.219 119.039 340.547 118.18C338.875 117.305 337.609 116.211 336.75 114.898C335.906 113.57 335.484 112.227 335.484 110.867H342.844C342.875 111.648 343.062 112.289 343.406 112.789C343.766 113.289 344.242 113.656 344.836 113.891C345.43 114.125 346.117 114.242 346.898 114.242C347.617 114.242 348.211 114.141 348.68 113.938C349.164 113.734 349.531 113.461 349.781 113.117C350.031 112.758 350.156 112.344 350.156 111.875Z" fill="black"/>
<path d="M1134 0H1348C1356.28 0 1363 6.71573 1363 15V148C1363 156.284 1356.28 163 1348 163H1134V0Z" fill="#FAD02C"/>
<path fill-rule="evenodd" clip-rule="evenodd" d="M1219.98 53C1219.85 53 1219.73 53.0527 1219.64 53.1464C1219.55 53.2402 1219.5 53.3674 1219.5 53.5V109.5C1219.5 109.633 1219.55 109.76 1219.64 109.854C1219.73 109.947 1219.85 110 1219.98 110H1277.02C1277.15 110 1277.27 109.947 1277.36 109.854C1277.45 109.76 1277.5 109.633 1277.5 109.5V64C1277.5 63.8674 1277.45 63.7402 1277.36 63.6464C1277.27 63.5527 1277.15 63.5 1277.02 63.5H1248.5C1247.65 63.5 1246.84 63.1045 1246.29 62.4206L1238.77 53H1219.98ZM1215.58 48.9038C1216.74 47.6848 1218.33 47 1219.98 47H1240.11C1240.97 47 1241.77 47.3955 1242.32 48.0794L1249.85 57.5H1277.02C1278.67 57.5 1280.26 58.1848 1281.42 59.4038C1282.59 60.6228 1283.25 62.2761 1283.25 64V109.5C1283.25 111.224 1282.59 112.877 1281.42 114.096C1280.26 115.315 1278.67 116 1277.02 116H1219.98C1218.33 116 1216.74 115.315 1215.58 114.096C1214.41 112.877 1213.75 111.224 1213.75 109.5V53.5C1213.75 51.7761 1214.41 50.1228 1215.58 48.9038Z" fill="white"/>
<path fill-rule="evenodd" clip-rule="evenodd" d="M1244.16 75.5251C1245.47 76.892 1245.47 79.108 1244.16 80.4749L1238.15 86.75L1244.16 93.0251C1245.47 94.392 1245.47 96.608 1244.16 97.9749C1242.85 99.3417 1240.73 99.3417 1239.42 97.9749L1231.03 89.2249C1229.72 87.858 1229.72 85.642 1231.03 84.2751L1239.42 75.5251C1240.73 74.1583 1242.85 74.1583 1244.16 75.5251Z" fill="white"/>
<path fill-rule="evenodd" clip-rule="evenodd" d="M1252.12 97.9749C1250.81 96.608 1250.81 94.392 1252.12 93.0251L1258.13 86.75L1252.12 80.4749C1250.81 79.108 1250.81 76.892 1252.12 75.5251C1253.43 74.1583 1255.55 74.1583 1256.86 75.5251L1265.25 84.2751C1266.56 85.642 1266.56 87.858 1265.25 89.2249L1256.86 97.9749C1255.55 99.3417 1253.43 99.3417 1252.12 97.9749Z" fill="white"/>
</svg>
